<svg width="48" height="48" viewBox="0 0 48 48" fill="none" xmlns="http://www.w3.org/2000/svg">
<path d="M36.816 8.304C36.2464 8.304 35.6896 8.47291 35.216 8.78937C34.7423 9.10583 34.3732 9.55562 34.1552 10.0819C33.9372 10.6081 33.8802 11.1872 33.9913 11.7459C34.1025 12.3045 34.3768 12.8177 34.7795 13.2205C35.1823 13.6232 35.6955 13.8975 36.2541 14.0087C36.8128 14.1198 37.3919 14.0628 37.9181 13.8448C38.4444 13.6268 38.8942 13.2577 39.2106 12.784C39.5271 12.3104 39.696 11.7536 39.696 11.184C39.696 10.4202 39.3926 9.68764 38.8525 9.14753C38.3124 8.60743 37.5798 8.304 36.816 8.304ZM47.856 14.112C47.8093 12.1207 47.4364 10.1506 46.752 8.28C46.1418 6.67952 45.192 5.23027 43.968 4.032C42.7796 2.80182 41.3269 1.85802 39.72 1.272C37.8544 0.566786 35.882 0.185304 33.888 0.144C31.344 -1.3411e-07 30.528 0 24 0C17.472 0 16.656 -1.3411e-07 14.112 0.144C12.118 0.185304 10.1456 0.566786 8.28 1.272C6.67602 1.86396 5.22464 2.80695 4.032 4.032C2.80182 5.22043 1.85802 6.67306 1.272 8.28C0.566786 10.1456 0.185304 12.118 0.144 14.112C-1.3411e-07 16.656 0 17.472 0 24C0 30.528 -1.3411e-07 31.344 0.144 33.888C0.185304 35.882 0.566786 37.8544 1.272 39.72C1.85802 41.3269 2.80182 42.7796 4.032 43.968C5.22464 45.1931 6.67602 46.136 8.28 46.728C10.1456 47.4332 12.118 47.8147 14.112 47.856C16.656 48 17.472 48 24 48C30.528 48 31.344 48 33.888 47.856C35.882 47.8147 37.8544 47.4332 39.72 46.728C41.3269 46.142 42.7796 45.1982 43.968 43.968C45.1974 42.7742 46.148 41.3237 46.752 39.72C47.4364 37.8494 47.8093 35.8793 47.856 33.888C47.856 31.344 48 30.528 48 24C48 17.472 48 16.656 47.856 14.112ZM43.536 33.6C43.5185 35.1235 43.2426 36.6329 42.72 38.064C42.3368 39.1085 41.7213 40.0522 40.92 40.824C40.1416 41.6172 39.1997 42.2314 38.16 42.624C36.7289 43.1466 35.2195 43.4225 33.696 43.44C31.296 43.56 30.408 43.584 24.096 43.584C17.784 43.584 16.896 43.584 14.496 43.44C12.9141 43.4696 11.339 43.226 9.84 42.72C8.84588 42.3074 7.94725 41.6947 7.2 40.92C6.40341 40.149 5.79562 39.2045 5.424 38.16C4.83806 36.7084 4.51306 35.1647 4.464 33.6C4.464 31.2 4.32 30.312 4.32 24C4.32 17.688 4.32 16.8 4.464 14.4C4.47476 12.8425 4.75908 11.2991 5.304 9.84C5.72651 8.82699 6.37504 7.92398 7.2 7.2C7.92915 6.3748 8.83029 5.71943 9.84 5.28C11.3029 4.7521 12.8448 4.47619 14.4 4.464C16.8 4.464 17.688 4.32 24 4.32C30.312 4.32 31.2 4.32 33.6 4.464C35.1235 4.48147 36.6329 4.75739 38.064 5.28C39.1546 5.68477 40.1335 6.34283 40.92 7.2C41.7065 7.93723 42.321 8.83856 42.72 9.84C43.2534 11.3014 43.5295 12.8443 43.536 14.4C43.656 16.8 43.68 17.688 43.68 24C43.68 30.312 43.656 31.2 43.536 33.6ZM24 11.688C21.5659 11.6927 19.1879 12.4189 17.1664 13.7746C15.1448 15.1303 13.5705 17.0549 12.6423 19.305C11.7141 21.5551 11.4737 24.0299 11.9515 26.4166C12.4293 28.8033 13.6038 30.9949 15.3266 32.7143C17.0494 34.4338 19.2432 35.604 21.6309 36.0772C24.0185 36.5503 26.4928 36.3051 28.7411 35.3725C30.9895 34.4399 32.9109 32.8619 34.2627 30.8377C35.6145 28.8135 36.336 26.4341 36.336 24C36.3392 22.3803 36.0221 20.7759 35.403 19.2791C34.7839 17.7823 33.8749 16.4227 32.7285 15.2785C31.582 14.1343 30.2207 13.228 28.7227 12.6118C27.2248 11.9956 25.6197 11.6817 24 11.688ZM24 31.992C22.4193 31.992 20.8742 31.5233 19.5599 30.6451C18.2456 29.7669 17.2213 28.5188 16.6164 27.0584C16.0115 25.5981 15.8532 23.9911 16.1616 22.4408C16.4699 20.8905 17.2311 19.4665 18.3488 18.3488C19.4665 17.2311 20.8905 16.4699 22.4408 16.1616C23.9911 15.8532 25.5981 16.0115 27.0584 16.6164C28.5188 17.2213 29.7669 18.2456 30.6451 19.5599C31.5233 20.8742 31.992 22.4193 31.992 24C31.992 25.0495 31.7853 26.0888 31.3836 27.0584C30.982 28.028 30.3933 28.9091 29.6512 29.6512C28.9091 30.3933 28.028 30.982 27.0584 31.3836C26.0888 31.7853 25.0495 31.992 24 31.992Z" fill="black"/>
</svg>
